<?xml version="1.0" standalone="no"?>
<!DOCTYPE svg PUBLIC "-//W3C//DTD SVG 20010904//EN"
 "http://www.w3.org/TR/2001/REC-SVG-20010904/DTD/svg10.dtd">
<svg version="1.0" xmlns="http://www.w3.org/2000/svg"
 width="1280.000000pt" height="640.000000pt" viewBox="0 0 1280.000000 640.000000"
 preserveAspectRatio="xMidYMid meet">
<metadata>
Created by potrace 1.15, written by Peter Selinger 2001-2017
</metadata>
<g transform="translate(0.000000,640.000000) scale(0.100000,-0.100000)"
fill="#000000" stroke="none">
<path d="M50 6290 l0 -80 6190 -3095 6191 -3096 154 3 155 3 -6338 3173
c-3486 1744 -6342 3172 -6345 3172 -4 0 -7 -36 -7 -80z"/>
<path d="M80 3110 c0 -2905 1 -3063 17 -3076 15 -11 1064 -13 6131 -14 3361 0
6112 3 6111 8 0 4 -50 31 -112 60 l-112 53 -5972 -1 -5973 0 -2 2991 -3 2991
-42 25 -43 25 0 -3062z"/>
<path d="M1730 3744 l-63 -46 7 -771 c3 -425 9 -922 12 -1104 l7 -333 2314 0
2315 0 -25 42 -25 43 -2246 3 -2246 2 0 1040 c0 988 1 1040 18 1031 20 -10 18
-9 1762 -801 718 -326 1631 -740 2029 -921 398 -181 726 -327 729 -325 2 3 1
27 -3 55 l-7 49 -2246 1037 c-1236 571 -2252 1039 -2258 1042 -6 2 -39 -17
-74 -43z m10 -64 c8 -5 11 -10 5 -10 -5 0 -17 5 -25 10 -8 5 -10 10 -5 10 6 0
17 -5 25 -10z"/>
</g>
</svg>
